<?xml version="1.0" standalone="no"?>
<!DOCTYPE svg PUBLIC "-//W3C//DTD SVG 20010904//EN"
 "http://www.w3.org/TR/2001/REC-SVG-20010904/DTD/svg10.dtd">
<svg version="1.0" xmlns="http://www.w3.org/2000/svg"
 width="512.000000pt" height="512.000000pt" viewBox="0 0 512.000000 512.000000"
 preserveAspectRatio="xMidYMid meet">

<g transform="translate(0.000000,512.000000) scale(0.100000,-0.100000)"
fill="#000000" stroke="none">
<path d="M2421 4884 c-125 -33 -266 -141 -320 -246 l-25 -46 -161 -4 c-160 -3
-162 -3 -210 -33 -36 -22 -57 -45 -77 -84 l-28 -53 0 -309 c0 -257 3 -316 16
-347 19 -47 58 -88 106 -113 36 -18 69 -19 835 -19 755 0 800 1 838 19 22 10
52 31 67 47 56 60 58 76 58 413 l0 309 -28 53 c-20 39 -41 62 -77 84 -48 30
-50 30 -210 33 l-161 4 -25 46 c-56 108 -195 213 -324 247 -73 19 -202 18
-274 -1z m349 -724 l0 -110 -210 0 -210 0 0 110 0 110 210 0 210 0 0 -110z"/>
<path d="M885 4471 c-90 -22 -172 -90 -215 -176 l-25 -50 0 -1895 0 -1895 24
-53 c31 -68 113 -144 183 -169 51 -17 129 -18 1708 -18 1579 0 1657 1 1708 18
70 25 152 101 183 169 l24 53 0 1895 0 1895 -34 63 c-37 69 -79 109 -151 144
-43 22 -57 23 -352 26 l-308 3 0 -215 0 -216 181 0 181 0 29 -29 29 -29 0
-1636 c0 -1154 -3 -1642 -11 -1659 -6 -13 -23 -31 -39 -40 -26 -16 -141 -17
-1440 -17 -1299 0 -1414 1 -1440 17 -16 9 -33 27 -39 40 -8 17 -11 505 -11
1659 l0 1636 29 29 29 29 181 0 181 0 0 215 0 215 -287 -1 c-159 -1 -301 -4
-318 -8z"/>
<path d="M2350 3200 l0 -110 638 2 637 3 0 105 0 105 -637 3 -638 2 0 -110z"/>
<path d="M1935 3113 c-61 -80 -115 -154 -122 -162 -10 -14 -20 -8 -75 46 l-64
63 -74 -75 -75 -76 121 -119 c109 -109 124 -120 157 -120 20 0 46 5 59 11 19
8 154 179 330 419 l27 37 -83 61 c-46 34 -85 62 -88 62 -2 0 -53 -66 -113
-147z"/>
<path d="M2350 2775 l0 -105 640 0 640 0 0 105 0 105 -640 0 -640 0 0 -105z"/>
<path d="M2350 2345 l0 -105 640 0 640 0 0 105 0 105 -640 0 -640 0 0 -105z"/>
<path d="M1930 2254 c-63 -86 -119 -158 -124 -161 -4 -3 -36 22 -70 56 l-62
61 -74 -75 -75 -75 110 -111 c192 -194 188 -194 411 102 90 120 164 223 164
228 0 9 -153 132 -162 131 -2 -1 -55 -71 -118 -156z"/>
<path d="M2350 1920 l0 -110 638 2 637 3 0 105 0 105 -637 3 -638 2 0 -110z"/>
<path d="M2350 1495 l0 -105 640 0 640 0 0 105 0 105 -640 0 -640 0 0 -105z"/>
<path d="M1923 1391 l-120 -160 -58 60 c-33 32 -64 59 -70 59 -13 0 -145 -132
-145 -145 0 -14 209 -220 237 -234 31 -16 75 -14 101 5 13 9 97 114 187 235
l165 218 -80 61 c-43 33 -83 60 -88 60 -5 0 -63 -72 -129 -159z"/>
<path d="M2350 1065 l0 -105 640 0 640 0 0 105 0 105 -640 0 -640 0 0 -105z"/>
</g>
</svg>
